# Rhino

mtllib RV_with_hole.mtl
g Default
usemtl diffuse_0_0_0_255
v 8 0 -5 1
v 10 0 -7.999999999999998 0.70710678118654757
v 7 0 -10 1
v 4 0 -12 0.70710678118654757
v 1.9999999999999998 0 -9 1
v 0 0 -6.000000000000003 0.70710678118654757
v 2.9999999999999987 0 -3.9999999999999996 1
v 5.9999999999999973 0 -1.9999999999999996 0.70710678118654757
cstype rat bspline
deg 2
curv 0 22.654346798277956 1 2 3 4 5 6 7 8 1
parm u 0 0 0 5.663586699569489 5.663586699569489 11.327173399138978 11.327173399138978 16.990760098708467 16.990760098708467 22.654346798277956 22.654346798277956 22.654346798277956
end
usemtl diffuse_0_0_0_255
v -12 0 5.999999999999998 1
v -7 0 9.5 1
v -2 0 13 1
v 2.6595799558869992 0 7.992040234327058 0.91683785597868395
v 9.5 0 7.992040234327057 1
v 16.340420044112999 0 7.992040234327058 0.91683785597868395
v 21 0 13 1
v 23 0 11.5 1
v 25 0 10 1
v 11.785714285714292 0 -6.428571428571428 0.75925660236529657
v 26 0 -22.000000000000004 1
v 22 0 -24.5 1
v 18 0 -27 1
v 7.4366197183098564 0 -14.8169014084507 0.790549812284432
v -7.0000000000000009 0 -22 1
v -9 0 -20.5 1
v -11 0 -19 1
v -0.5120967741935496 0 -6.060483870967743 0.75107387868088349
cstype rat bspline
deg 2
curv 32.327552096150143 179.40103852786314 9 10 11 12 13 14 15 16 17 18 19 20 21 22 23 24 25 26 9
parm u 32.327552096150143 32.327552096150143 32.327552096150143 44.534107711883848 44.534107711883848 57.436918232939554 57.436918232939554 70.33972875399526 70.33972875399526 75.33972875399526 75.33972875399526 110.200532410986 110.200532410986 119.6345135430426 119.6345135430426 147.07348643171298 147.07348643171298 152.07348643171298 152.07348643171298 179.40103852786314 179.40103852786314 179.40103852786314
end
